<?xml version="1.0" encoding="utf-8"?>
<COLLADA xmlns="http://www.collada.org/2005/11/COLLADASchema" version="1.4.1">
<asset>
	<contributor>
		<author>Anonymous</author>
		<authoring_tool>Collada Exporter for Blender 2.6+, by Juan Linietsky (juan@codenix.com)</authoring_tool>
	</contributor>
	<created>2022-08-30T21:00:42Z</created>
	<modified>2022-08-30T21:00:42Z</modified>
	<unit meter="1.0" name="meter"/>
	<up_axis>Z_UP</up_axis>
</asset>
<library_effects>
	<effect id="id-fx-2" name="Material-fx">
		<profile_COMMON>
			<technique sid="common">
				<blinn>
					<emission>
						<color>  0.800000011920929 0.800000011920929 0.800000011920929 1.0 </color>
					</emission>
					<ambient>
						<color>  0.0 0.0 0.0 1.0 </color>
					</ambient>
					<diffuse>
						<color>  0.6400000095367432 0.6400000095367432 0.6400000095367432 0.8 </color>
					</diffuse>
					<specular>
						<color>  0.5 0.5 0.5 1.0 </color>
					</specular>
					<shininess>
						<float>50</float>
					</shininess>
					<reflective>
						<color>  0.5 0.5 0.5 1.0 </color>
					</reflective>
					<index_of_refraction>
						<float>1.2</float>
					</index_of_refraction>
				</blinn>
				<extra>
					<technique profile="FCOLLADA">
					</technique>
					<technique profile="GOOGLEEARTH">
						<double_sided>1</double_sided>
					</technique>
				</extra>
			</technique>
		</profile_COMMON>
	</effect>
</library_effects>
<library_materials>
	<material id="id-material-3" name="Material">
		<instance_effect url="#id-fx-2"/>
	</material>
</library_materials>
<library_geometries>
	<geometry id="id-mesh-4" name="Cube">
		<mesh>
			<source id="id-mesh-4-positions">
				<float_array id="id-mesh-4-positions-array" count="708"> 0.4592173099517822 -0.07976920157670975 -0.006143689155578613 0.45671701431274414 -0.07976920157670975 0.012039601802825928 0.028238534927368164 -0.07976920157670975 0.01324242353439331 0.08023691177368164 -0.07976920157670975 -0.005961954593658447 0.26894283294677734 0.0 -0.18930667638778687 0.6295127868652344 0.0 -0.19190478324890137 0.6295127868652344 -0.07976920157670975 -0.19190478324890137 0.26894283294677734 -0.07976920157670975 -0.18930667638778687 0.4592173099517822 0.0 -0.006143748760223389 0.45671701431274414 0.0 0.012039601802825928 0.45671701431274414 -0.07976920157670975 0.012039601802825928 0.4592173099517822 -0.07976920157670975 -0.006143689155578613 0.45671701431274414 -0.07976920157670975 0.012039601802825928 0.45671701431274414 0.0 0.012039601802825928 0.47171640396118164 0.0 0.02197861671447754 0.47171640396118164 -0.07976920157670975 0.02197861671447754 -0.7093930244445801 0.0 0.01746809482574463 -0.7062239050865173 -0.06625130772590637 0.02572106011211872 -0.7150139808654785 -0.07976920157670975 0.0568426251411438 -0.7150139808654785 0.0 0.04815566539764404 -0.7062239050865173 -0.06625130772590637 0.02572106011211872 0.47171640396118164 -0.07976920157670975 0.02197861671447754 0.5348286628723145 -0.07976920157670975 0.046351492404937744 -0.7150139808654785 -0.07976920157670975 0.0568426251411438 0.47171640396118164 -0.07976920157670975 0.02197861671447754 0.47171640396118164 0.0 0.02197861671447754 0.5348286628723145 0.0 0.046351492404937744 0.5348286628723145 -0.07976920157670975 0.046351492404937744 0.08023691177368164 -0.07976920157670975 -0.005961954593658447 0.028238534927368164 -0.07976920157670975 0.01324242353439331 0.028238534927368164 0.0 0.01324242353439331 0.08023691177368164 0.0 -0.005961954593658447 0.26894283294677734 -0.07976920157670975 -0.18930667638778687 0.08023691177368164 -0.07976920157670975 -0.005961954593658447 0.08023691177368164 0.0 -0.005961954593658447 0.26894283294677734 0.0 -0.18930667638778687 0.6295127868652344 0.0 -0.19190478324890137 0.4592173099517822 0.0 -0.006143748760223389 0.4592173099517822 -0.07976920157670975 -0.006143689155578613 0.6295127868652344 -0.07976920157670975 -0.19190478324890137 0.6295127868652344 -0.07976920157670975 -0.19190478324890137 0.4592173099517822 -0.07976920157670975 -0.006143689155578613 0.08023691177368164 -0.07976920157670975 -0.005961954593658447 0.26894283294677734 -0.07976920157670975 -0.18930667638778687 0.20616555213928223 0.0 0.04682588577270508 -0.3863506317138672 0.0 0.04768127202987671 -0.3863506317138672 -0.07976920157670975 0.06184870004653931 0.20616555213928223 -0.07976920157670975 0.05322408676147461 -0.7150139808654785 -0.07976920157670975 0.0568426251411438 0.5348286628723145 -0.07976920157670975 0.046351492404937744 0.20616555213928223 -0.07976920157670975 0.05322408676147461 -0.3863506317138672 -0.07976920157670975 0.06184870004653931 -0.7150139808654785 0.0 0.04815566539764404 -0.7150139808654785 -0.07976920157670975 0.0568426251411438 -0.3863506317138672 -0.07976920157670975 0.06184870004653931 -0.3863506317138672 0.0 0.04768127202987671 0.5348286628723145 -0.07976920157670975 0.046351492404937744 0.5348286628723145 0.0 0.046351492404937744 0.20616555213928223 0.0 0.04682588577270508 0.20616555213928223 -0.07976920157670975 0.05322408676147461 0.028238534927368164 -0.07976920157670975 0.01324242353439331 0.45671701431274414 -0.07976920157670975 0.012039601802825928 0.47171640396118164 -0.07976920157670975 0.02197861671447754 -0.7062239050865173 -0.06625130772590637 0.02572106011211872 0.028238534927368164 0.0 0.01324242353439331 0.028238534927368164 -0.07976920157670975 0.01324242353439331 -0.7062239050865173 -0.06625130772590637 0.02572106011211872 -0.7093930244445801 0.0 0.01746809482574463 0.5323963165283203 0.0 0.046021342277526855 0.5341148376464844 0.0 0.10330045223236084 0.5341148376464844 -0.07598355412483215 0.09733813256025314 0.5323963165283203 -0.07976920157670975 0.046021342277526855 0.5323963165283203 -0.07976920157670975 0.046021342277526855 0.5341148376464844 -0.07598355412483215 0.09733813256025314 -0.8564324378967285 -0.07598355412483215 0.09237503260374069 -0.8598694801330566 -0.07976920157670975 0.058316707611083984 -0.8598694801330566 0.0 0.049629807472229004 0.5323963165283203 0.0 0.046021342277526855 0.5323963165283203 -0.07976920157670975 0.046021342277526855 -0.8598694801330566 -0.07976920157670975 0.058316707611083984 0.5341148376464844 0.0 0.10330045223236084 -0.8564324378967285 0.0 0.10149621963500977 -0.8564324378967285 -0.07598355412483215 0.09237503260374069 0.5341148376464844 -0.07598355412483215 0.09733813256025314 -0.8598694801330566 -0.07976920157670975 0.058316707611083984 -0.8564324378967285 -0.07598355412483215 0.09237503260374069 -0.8564324378967285 0.0 0.10149621963500977 -0.8598694801330566 0.0 0.049629807472229004 -0.11789155006408691 0.0 -0.025715291500091553 -0.1932508945465088 0.0 0.015689074993133545 -0.1932508945465088 -0.07976920157670975 0.015689074993133545 -0.11570978164672852 -0.07976920157670975 -0.025751352310180664 -0.11570978164672852 -0.07976920157670975 -0.025751352310180664 -0.1932508945465088 -0.07976920157670975 0.015689074993133545 -0.23772978782653809 -0.07976920157670975 0.015656113624572754 -0.15989995002746582 -0.07976920157670975 -0.025712549686431885 -0.14330220222473145 0.0 -0.033837080001831055 -0.11565566062927246 0.0 -0.03852134943008423 -0.11565566062927246 -0.07976920157670975 -0.03852134943008423 -0.14330220222473145 -0.07976920157670975 -0.033837080001831055 -0.1932508945465088 0.0 0.015689074993133545 -0.23772978782653809 0.0 0.015656113624572754 -0.23772978782653809 -0.07976920157670975 0.015656113624572754 -0.1932508945465088 -0.07976920157670975 0.015689074993133545 -0.15989995002746582 -0.07976920157670975 -0.025712549686431885 -0.23772978782653809 -0.07976920157670975 0.015656113624572754 -0.23772978782653809 0.0 0.015656113624572754 -0.15989995002746582 0.0 -0.025712549686431885 -0.14330220222473145 -0.07976920157670975 -0.033837080001831055 -0.15989995002746582 -0.07976920157670975 -0.025712549686431885 -0.15989995002746582 0.0 -0.025712549686431885 -0.14330220222473145 0.0 -0.033837080001831055 -0.11565566062927246 -0.07976920157670975 -0.03852134943008423 -0.11570978164672852 -0.07976920157670975 -0.025751352310180664 -0.15989995002746582 -0.07976920157670975 -0.025712549686431885 -0.14330220222473145 -0.07976920157670975 -0.033837080001831055 -0.11565566062927246 -0.07976920157670975 -0.03852134943008423 -0.11565566062927246 0.0 -0.03852134943008423 0.1548323631286621 0.0 -0.049069344997406006 0.1548323631286621 -0.07976920157670975 -0.049069344997406006 0.1548323631286621 0.0 -0.049069344997406006 0.1367936134338379 0.0 -0.03878539800643921 0.1367936134338379 -0.07976920157670975 -0.03878539800643921 0.1548323631286621 -0.07976920157670975 -0.049069344997406006 -0.11789155006408691 0.0 -0.025715291500091553 -0.11570978164672852 -0.07976920157670975 -0.025751352310180664 0.1367936134338379 -0.07976920157670975 -0.03878539800643921 0.1367936134338379 0.0 -0.03878539800643921 -0.11570978164672852 -0.07976920157670975 -0.025751352310180664 -0.11565566062927246 -0.07976920157670975 -0.03852134943008423 0.1548323631286621 -0.07976920157670975 -0.049069344997406006 0.1367936134338379 -0.07976920157670975 -0.03878539800643921 0.4592173099517822 0.07976920157670975 -0.006143689155578613 0.08023691177368164 0.07976920157670975 -0.005961954593658447 0.028238534927368164 0.07976920157670975 0.01324242353439331 0.45671701431274414 0.07976920157670975 0.012039601802825928 0.26894283294677734 0.07976920157670975 -0.18930667638778687 0.6295127868652344 0.07976920157670975 -0.19190478324890137 0.4592173099517822 0.07976920157670975 -0.006143689155578613 0.45671701431274414 0.07976920157670975 0.012039601802825928 0.45671701431274414 0.07976920157670975 0.012039601802825928 0.47171640396118164 0.07976920157670975 0.02197861671447754 -0.7093930244445801 0.0 0.01746809482574463 -0.7150139808654785 0.0 0.04815566539764404 -0.7150139808654785 0.07976920157670975 0.0568426251411438 -0.7062239050865173 0.06625130772590637 0.02572106011211872 -0.7062239050865173 0.06625130772590637 0.02572106011211872 -0.7150139808654785 0.07976920157670975 0.0568426251411438 0.5348286628723145 0.07976920157670975 0.046351492404937744 0.47171640396118164 0.07976920157670975 0.02197861671447754 0.47171640396118164 0.07976920157670975 0.02197861671447754 0.5348286628723145 0.07976920157670975 0.046351492404937744 0.08023691177368164 0.07976920157670975 -0.005961954593658447 0.028238534927368164 0.07976920157670975 0.01324242353439331 0.26894283294677734 0.07976920157670975 -0.18930667638778687 0.08023691177368164 0.07976920157670975 -0.005961954593658447 0.6295127868652344 0.0 -0.19190478324890137 0.6295127868652344 0.07976920157670975 -0.19190478324890137 0.4592173099517822 0.07976920157670975 -0.006143689155578613 0.4592173099517822 0.0 -0.006143748760223389 0.6295127868652344 0.07976920157670975 -0.19190478324890137 0.26894283294677734 0.07976920157670975 -0.18930667638778687 0.20616555213928223 0.0 0.04682588577270508 0.20616555213928223 0.07976920157670975 0.05322408676147461 -0.3863506317138672 0.07976920157670975 0.06184870004653931 -0.3863506317138672 0.0 0.04768127202987671 -0.7150139808654785 0.07976920157670975 0.0568426251411438 -0.3863506317138672 0.07976920157670975 0.06184870004653931 0.20616555213928223 0.07976920157670975 0.05322408676147461 0.5348286628723145 0.07976920157670975 0.046351492404937744 -0.7150139808654785 0.0 0.04815566539764404 -0.3863506317138672 0.0 0.04768127202987671 -0.3863506317138672 0.07976920157670975 0.06184870004653931 -0.7150139808654785 0.07976920157670975 0.0568426251411438 0.5348286628723145 0.07976920157670975 0.046351492404937744 0.20616555213928223 0.07976920157670975 0.05322408676147461 0.20616555213928223 0.0 0.04682588577270508 0.5348286628723145 0.0 0.046351492404937744 0.028238534927368164 0.07976920157670975 0.01324242353439331 -0.7062239050865173 0.06625130772590637 0.02572106011211872 0.47171640396118164 0.07976920157670975 0.02197861671447754 0.45671701431274414 0.07976920157670975 0.012039601802825928 0.028238534927368164 0.0 0.01324242353439331 -0.7093930244445801 0.0 0.01746809482574463 -0.7062239050865173 0.06625130772590637 0.02572106011211872 0.028238534927368164 0.07976920157670975 0.01324242353439331 0.5323963165283203 0.0 0.046021342277526855 0.5323963165283203 0.07976920157670975 0.046021342277526855 0.5341148376464844 0.07598355412483215 0.09733813256025314 0.5341148376464844 0.0 0.10330045223236084 0.5323963165283203 0.07976920157670975 0.046021342277526855 -0.8598694801330566 0.07976920157670975 0.058316707611083984 -0.8564324378967285 0.07598355412483215 0.09237503260374069 0.5341148376464844 0.07598355412483215 0.09733813256025314 -0.8598694801330566 0.0 0.049629807472229004 -0.8598694801330566 0.07976920157670975 0.058316707611083984 0.5323963165283203 0.07976920157670975 0.046021342277526855 0.5323963165283203 0.0 0.046021342277526855 0.5341148376464844 0.0 0.10330045223236084 0.5341148376464844 0.07598355412483215 0.09733813256025314 -0.8564324378967285 0.07598355412483215 0.09237503260374069 -0.8564324378967285 0.0 0.10149621963500977 -0.8598694801330566 0.07976920157670975 0.058316707611083984 -0.8598694801330566 0.0 0.049629807472229004 -0.8564324378967285 0.0 0.10149621963500977 -0.8564324378967285 0.07598355412483215 0.09237503260374069 -0.11789155006408691 0.0 -0.025715291500091553 -0.11570978164672852 0.07976920157670975 -0.025751352310180664 -0.1932508945465088 0.07976920157670975 0.015689074993133545 -0.1932508945465088 0.0 0.015689074993133545 -0.11570978164672852 0.07976920157670975 -0.025751352310180664 -0.15989995002746582 0.07976920157670975 -0.025712549686431885 -0.23772978782653809 0.07976920157670975 0.015656113624572754 -0.1932508945465088 0.07976920157670975 0.015689074993133545 -0.14330220222473145 0.07976920157670975 -0.033837080001831055 -0.11565566062927246 0.07976920157670975 -0.03852134943008423 -0.1932508945465088 0.07976920157670975 0.015689074993133545 -0.23772978782653809 0.07976920157670975 0.015656113624572754 -0.15989995002746582 0.07976920157670975 -0.025712549686431885 -0.23772978782653809 0.07976920157670975 0.015656113624572754 -0.14330220222473145 0.07976920157670975 -0.033837080001831055 -0.15989995002746582 0.07976920157670975 -0.025712549686431885 -0.11565566062927246 0.07976920157670975 -0.03852134943008423 -0.14330220222473145 0.07976920157670975 -0.033837080001831055 -0.15989995002746582 0.07976920157670975 -0.025712549686431885 -0.11570978164672852 0.07976920157670975 -0.025751352310180664 -0.11565566062927246 0.07976920157670975 -0.03852134943008423 0.1548323631286621 0.07976920157670975 -0.049069344997406006 0.1548323631286621 0.07976920157670975 -0.049069344997406006 0.1367936134338379 0.07976920157670975 -0.03878539800643921 -0.11789155006408691 0.0 -0.025715291500091553 0.1367936134338379 0.0 -0.03878539800643921 0.1367936134338379 0.07976920157670975 -0.03878539800643921 -0.11570978164672852 0.07976920157670975 -0.025751352310180664 0.1367936134338379 0.07976920157670975 -0.03878539800643921 0.1548323631286621 0.07976920157670975 -0.049069344997406006</float_array>
				<technique_common>
				<accessor source="#id-mesh-4-positions-array" count="236" stride="3">
					<param name="X" type="float"/>
					<param name="Y" type="float"/>
					<param name="Z" type="float"/>
				</accessor>
				</technique_common>
			</source>
			<source id="id-mesh-4-normals">
				<float_array id="id-mesh-4-normals-array" count="708"> 0.0 -1.0 6.185405254655052e-08 0.0 -1.0 6.185405254655052e-08 0.0 -1.0 6.185405254655052e-08 0.0 -1.0 6.185405254655052e-08 -0.007205374538898468 0.0 -0.9999740719795227 -0.007205374538898468 0.0 -0.9999740719795227 -0.007205374538898468 0.0 -0.9999740719795227 -0.007205374538898468 0.0 -0.9999740719795227 0.9906781315803528 0.0 0.13622309267520905 0.9906781315803528 0.0 0.13622309267520905 0.9906781315803528 0.0 0.13622309267520905 0.9906781315803528 0.0 0.13622309267520905 0.5523672103881836 0.0 -0.8336008191108704 0.5523672103881836 0.0 -0.8336008191108704 0.5523672103881836 0.0 -0.8336008191108704 0.5523672103881836 0.0 -0.8336008191108704 -0.9703326225280762 -0.048536594957113266 -0.23685184121131897 -0.9703326225280762 -0.048536594957113266 -0.23685184121131897 -0.9703326225280762 -0.048536594957113266 -0.23685184121131897 -0.9703326225280762 -0.048536594957113266 -0.23685184121131897 -0.006768872495740652 -0.973071277141571 -0.23040463030338287 -0.006768872495740652 -0.973071277141571 -0.23040463030338287 -0.006768872495740652 -0.973071277141571 -0.23040463030338287 -0.006768872495740652 -0.973071277141571 -0.23040463030338287 0.3602525591850281 0.0 -0.9328547716140747 0.3602525591850281 0.0 -0.9328547716140747 0.3602525591850281 0.0 -0.9328547716140747 0.3602525591850281 0.0 -0.9328547716140747 -0.34645310044288635 0.0 -0.9380673170089722 -0.34645310044288635 0.0 -0.9380673170089722 -0.34645310044288635 0.0 -0.9380673170089722 -0.34645310044288635 0.0 -0.9380673170089722 -0.6968451142311096 0.0 -0.7172216773033142 -0.6968451142311096 0.0 -0.7172216773033142 -0.6968451142311096 0.0 -0.7172216773033142 -0.6968451142311096 0.0 -0.7172216773033142 0.7371254563331604 3.706308859818819e-07 0.6757559180259705 0.7371254563331604 3.706308859818819e-07 0.6757559180259705 0.7371254563331604 3.706308859818819e-07 0.6757559180259705 0.7371254563331604 3.706308859818819e-07 0.6757559180259705 0.0 -1.0 0.0 0.0 -1.0 0.0 0.0 -1.0 0.0 0.0 -1.0 0.0 0.00793387833982706 0.12784519791603088 0.9917624592781067 0.00793387833982706 0.12784519791603088 0.9917624592781067 0.00793387833982706 0.12784519791603088 0.9917624592781067 0.00793387833982706 0.12784519791603088 0.9917624592781067 0.0 -1.0 6.808916168665746e-07 0.0 -1.0 6.808916168665746e-07 0.0 -1.0 6.808916168665746e-07 0.0 -1.0 6.808916168665746e-07 -0.006824273616075516 0.14180228114128113 0.9898715019226074 -0.006824273616075516 0.14180228114128113 0.9898715019226074 -0.006824273616075516 0.14180228114128113 0.9898715019226074 -0.006824273616075516 0.14180228114128113 0.9898715019226074 0.011167402379214764 0.04006975144147873 0.9991344809532166 0.011167402379214764 0.04006975144147873 0.9991344809532166 0.011167402379214764 0.04006975144147873 0.9991344809532166 0.011167402379214764 0.04006975144147873 0.9991344809532166 -0.0068265111185610294 -0.9380118250846863 0.3465360105037689 -0.0068265111185610294 -0.9380118250846863 0.3465360105037689 -0.0068265111185610294 -0.9380118250846863 0.3465360105037689 -0.0068265111185610294 -0.9380118250846863 0.3465360105037689 -0.01184876263141632 -0.056681543588638306 -0.9983219504356384 -0.01184876263141632 -0.056681543588638306 -0.9983219504356384 -0.01184876263141632 -0.056681543588638306 -0.9983219504356384 -0.01184876263141632 -0.056681543588638306 -0.9983219504356384 0.9994975328445435 0.001213251962326467 -0.031676195561885834 0.9994975328445435 0.001213251962326467 -0.031676195561885834 0.9994975328445435 0.001213251962326467 -0.031676195561885834 0.9994975328445435 0.001213251962326467 -0.031676195561885834 0.0002327144320588559 -0.9960919618606567 0.08832214027643204 0.0002327144320588559 -0.9960919618606567 0.08832214027643204 0.0002327144320588559 -0.9960919618606567 0.08832214027643204 0.0002327144320588559 -0.9960919618606567 0.08832214027643204 -0.005702952388674021 -0.05436880141496658 -0.9985046982765198 -0.005702952388674021 -0.05436880141496658 -0.9985046982765198 -0.005702952388674021 -0.05436880141496658 -0.9985046982765198 -0.005702952388674021 -0.05436880141496658 -0.9985046982765198 -0.002421431243419647 -0.09876946359872818 0.9951074123382568 -0.002421431243419647 -0.09876946359872818 0.9951074123382568 -0.002421431243419647 -0.09876946359872818 0.9951074123382568 -0.002421431243419647 -0.09876946359872818 0.9951074123382568 -0.9968143701553345 -0.0002220055175712332 0.07975615561008453 -0.9968143701553345 -0.0002220055175712332 0.07975615561008453 -0.9968143701553345 -0.0002220055175712332 0.07975615561008453 -0.9968143701553345 -0.0002220055175712332 0.07975615561008453 0.47637906670570374 0.006315974984318018 0.8792173266410828 0.47637906670570374 0.006315974984318018 0.8792173266410828 0.47637906670570374 0.006315974984318018 0.8792173266410828 0.47637906670570374 0.006315974984318018 0.8792173266410828 0.0 -1.0 -2.5370775347255403e-07 0.0 -1.0 -2.5370775347255403e-07 0.0 -1.0 -2.5370775347255403e-07 0.0 -1.0 -2.5370775347255403e-07 -0.16705335676670074 0.0 -0.9859479069709778 -0.16705335676670074 0.0 -0.9859479069709778 -0.16705335676670074 0.0 -0.9859479069709778 -0.16705335676670074 0.0 -0.9859479069709778 -0.0007410714752040803 0.0 0.9999996423721313 -0.0007410714752040803 0.0 0.9999996423721313 -0.0007410714752040803 0.0 0.9999996423721313 -0.0007410714752040803 0.0 0.9999996423721313 -0.4693460166454315 0.0 -0.8830143809318542 -0.4693460166454315 0.0 -0.8830143809318542 -0.4693460166454315 0.0 -0.8830143809318542 -0.4693460166454315 0.0 -0.8830143809318542 -0.4396500289440155 0.0 -0.8981691002845764 -0.4396500289440155 0.0 -0.8981691002845764 -0.4396500289440155 0.0 -0.8981691002845764 -0.4396500289440155 0.0 -0.8981691002845764 0.0 -1.0 0.0 0.0 -1.0 0.0 0.0 -1.0 0.0 0.0 -1.0 0.0 -0.038966551423072815 0.0 -0.9992405772209167 -0.038966551423072815 0.0 -0.9992405772209167 -0.038966551423072815 0.0 -0.9992405772209167 -0.038966551423072815 0.0 -0.9992405772209167 0.4952707290649414 0.0 0.8687387108802795 0.4952707290649414 0.0 0.8687387108802795 0.4952707290649414 0.0 0.8687387108802795 0.4952707290649414 0.0 0.8687387108802795 0.05140030011534691 0.00047719222493469715 0.9986780881881714 0.05140030011534691 0.00047719222493469715 0.9986780881881714 0.05140030011534691 0.00047719222493469715 0.9986780881881714 0.05140030011534691 0.00047719222493469715 0.9986780881881714 0.0 -1.0 -1.6015384574075142e-07 0.0 -1.0 -1.6015384574075142e-07 0.0 -1.0 -1.6015384574075142e-07 0.0 -1.0 -1.6015384574075142e-07 0.0 1.0 0.0 0.0 1.0 0.0 0.0 1.0 0.0 0.0 1.0 0.0 -0.007205374538898468 0.0 -0.9999740719795227 -0.007205374538898468 0.0 -0.9999740719795227 0.9906781315803528 0.0 0.13622309267520905 0.9906781315803528 0.0 0.13622309267520905 0.5523672103881836 0.0 -0.8336008191108704 0.5523672103881836 0.0 -0.8336008191108704 -0.9703326225280762 0.048536594957113266 -0.23685184121131897 -0.9703326225280762 0.048536594957113266 -0.23685184121131897 -0.9703326225280762 0.048536594957113266 -0.23685184121131897 -0.9703326225280762 0.048536594957113266 -0.23685184121131897 -0.006768872495740652 0.973071277141571 -0.23040467500686646 -0.006768872495740652 0.973071277141571 -0.23040467500686646 -0.006768872495740652 0.973071277141571 -0.23040467500686646 -0.006768872495740652 0.973071277141571 -0.23040467500686646 0.3602525591850281 0.0 -0.9328547716140747 0.3602525591850281 0.0 -0.9328547716140747 -0.34645310044288635 0.0 -0.9380673170089722 -0.34645310044288635 0.0 -0.9380673170089722 -0.6968451142311096 0.0 -0.7172216773033142 -0.6968451142311096 0.0 -0.7172216773033142 0.7371254563331604 -4.915534645988373e-07 0.6757559180259705 0.7371254563331604 -4.915534645988373e-07 0.6757559180259705 0.7371254563331604 -4.915534645988373e-07 0.6757559180259705 0.7371254563331604 -4.915534645988373e-07 0.6757559180259705 0.0 1.0 0.0 0.0 1.0 0.0 0.00793387833982706 -0.1278451830148697 0.9917624592781067 0.00793387833982706 -0.1278451830148697 0.9917624592781067 0.00793387833982706 -0.1278451830148697 0.9917624592781067 0.00793387833982706 -0.1278451830148697 0.9917624592781067 0.0 1.0 3.404458084332873e-07 0.0 1.0 3.404458084332873e-07 0.0 1.0 3.404458084332873e-07 0.0 1.0 3.404458084332873e-07 -0.006824273616075516 -0.14180228114128113 0.9898715019226074 -0.006824273616075516 -0.14180228114128113 0.9898715019226074 -0.006824273616075516 -0.14180228114128113 0.9898715019226074 -0.006824273616075516 -0.14180228114128113 0.9898715019226074 0.011167402379214764 -0.04006974771618843 0.9991344809532166 0.011167402379214764 -0.04006974771618843 0.9991344809532166 0.011167402379214764 -0.04006974771618843 0.9991344809532166 0.011167402379214764 -0.04006974771618843 0.9991344809532166 -0.006826510652899742 0.938011884689331 0.3465360403060913 -0.006826510652899742 0.938011884689331 0.3465360403060913 -0.006826510652899742 0.938011884689331 0.3465360403060913 -0.006826510652899742 0.938011884689331 0.3465360403060913 -0.01184876263141632 0.056681543588638306 -0.9983219504356384 -0.01184876263141632 0.056681543588638306 -0.9983219504356384 -0.01184876263141632 0.056681543588638306 -0.9983219504356384 -0.01184876263141632 0.056681543588638306 -0.9983219504356384 0.9994975328445435 -0.0012130314717069268 -0.031676195561885834 0.9994975328445435 -0.0012130314717069268 -0.031676195561885834 0.9994975328445435 -0.0012130314717069268 -0.031676195561885834 0.9994975328445435 -0.0012130314717069268 -0.031676195561885834 0.0002327144320588559 0.996091902256012 0.08832217752933502 0.0002327144320588559 0.996091902256012 0.08832217752933502 0.0002327144320588559 0.996091902256012 0.08832217752933502 0.0002327144320588559 0.996091902256012 0.08832217752933502 -0.005702952388674021 0.05436880141496658 -0.9985046982765198 -0.005702952388674021 0.05436880141496658 -0.9985046982765198 -0.005702952388674021 0.05436880141496658 -0.9985046982765198 -0.005702952388674021 0.05436880141496658 -0.9985046982765198 -0.002421431243419647 0.09876945614814758 0.9951074123382568 -0.002421431243419647 0.09876945614814758 0.9951074123382568 -0.002421431243419647 0.09876945614814758 0.9951074123382568 -0.002421431243419647 0.09876945614814758 0.9951074123382568 -0.9968143701553345 0.0002220055175712332 0.07975615561008453 -0.9968143701553345 0.0002220055175712332 0.07975615561008453 -0.9968143701553345 0.0002220055175712332 0.07975615561008453 -0.9968143701553345 0.0002220055175712332 0.07975615561008453 0.47637906670570374 -0.006315974984318018 0.8792173266410828 0.47637906670570374 -0.006315974984318018 0.8792173266410828 0.47637906670570374 -0.006315974984318018 0.8792173266410828 0.47637906670570374 -0.006315974984318018 0.8792173266410828 0.0 1.0 -1.268538625254223e-07 0.0 1.0 -1.268538625254223e-07 0.0 1.0 -1.268538625254223e-07 0.0 1.0 -1.268538625254223e-07 -0.16705335676670074 0.0 -0.9859479069709778 -0.16705335676670074 0.0 -0.9859479069709778 -0.0007410714752040803 0.0 0.9999996423721313 -0.0007410714752040803 0.0 0.9999996423721313 -0.4693460166454315 0.0 -0.8830143809318542 -0.4693460166454315 0.0 -0.8830143809318542 -0.4396500289440155 0.0 -0.8981691002845764 -0.4396500289440155 0.0 -0.8981691002845764 0.0 1.0 0.0 0.0 1.0 0.0 0.0 1.0 0.0 0.0 1.0 0.0 -0.038966551423072815 0.0 -0.9992405772209167 -0.038966551423072815 0.0 -0.9992405772209167 0.4952707290649414 0.0 0.8687387108802795 0.4952707290649414 0.0 0.8687387108802795 0.05140030011534691 -0.00047719222493469715 0.9986780881881714 0.05140030011534691 -0.00047719222493469715 0.9986780881881714 0.05140030011534691 -0.00047719222493469715 0.9986780881881714 0.05140030011534691 -0.00047719222493469715 0.9986780881881714 0.0 1.0 0.0 0.0 1.0 0.0</float_array>
				<technique_common>
				<accessor source="#id-mesh-4-normals-array" count="236" stride="3">
					<param name="X" type="float"/>
					<param name="Y" type="float"/>
					<param name="Z" type="float"/>
				</accessor>
				</technique_common>
			</source>
			<source id="id-mesh-4-texcoord-0">
				<float_array id="id-mesh-4-texcoord-0-array" count="472"> 0.607509970664978 0.75 0.625 0.75 0.625 1.0 0.607509970664978 1.0 0.125 0.625 0.375 0.625 0.375 0.75 0.125 0.75 0.607509970664978 0.625 0.625 0.625 0.625 0.75 0.607509970664978 0.75 0.625 0.75 0.625 0.625 0.625 0.625 0.625 0.75 0.625 0.125 0.625 0.0 0.625 0.0 0.625 0.125 0.625 1.0 0.625 0.75 0.625 0.75 0.625 1.0 0.625 0.75 0.625 0.625 0.625 0.625 0.625 0.75 0.607509970664978 0.0 0.625 0.0 0.625 0.125 0.607509970664978 0.125 0.375 0.0 0.607509970664978 0.0 0.607509970664978 0.125 0.375 0.125 0.375 0.625 0.607509970664978 0.625 0.607509970664978 0.75 0.375 0.75 0.375 0.75 0.607509970664978 0.75 0.607509970664978 1.0 0.375 1.0 0.625 0.625 0.875 0.625 0.875 0.75 0.625 0.75 0.625 1.0 0.625 0.75 0.625 0.75 0.625 1.0 0.625 0.125 0.625 0.0 0.625 0.0 0.625 0.125 0.625 0.75 0.625 0.625 0.625 0.625 0.625 0.75 0.625 1.0 0.625 0.75 0.625 0.75 0.625 1.0 0.625 0.125 0.625 0.0 0.625 0.0 0.625 0.125 0.375 0.625 0.625 0.625 0.625 0.75 0.375 0.75 0.375 0.75 0.625 0.75 0.625 1.0 0.375 1.0 0.125 0.625 0.375 0.625 0.375 0.75 0.125 0.75 0.625 0.625 0.875 0.625 0.875 0.75 0.625 0.75 0.375 0.0 0.625 0.0 0.625 0.125 0.375 0.1250000149011612 0.4201819896697998 0.625 0.625 0.625 0.625 0.75 0.4201819896697998 0.75 0.4201819896697998 0.75 0.625 0.75 0.625 1.0 0.4201819896697998 1.0 0.125 0.625 0.375 0.625 0.375 0.75 0.125 0.75 0.625 0.625 0.875 0.625 0.875 0.75 0.625 0.75 0.4201819896697998 0.0 0.625 0.0 0.625 0.125 0.4201819896697998 0.125 0.375 0.0 0.4201819896697998 0.0 0.4201819896697998 0.125 0.375 0.125 0.375 0.75 0.4201819896697998 0.75 0.4201819896697998 1.0 0.375 1.0 0.375 0.75 0.375 0.625 0.375 0.625 0.375 0.75 0.375 0.625 0.4201819896697998 0.625 0.4201819896697998 0.75 0.375 0.75 0.4201819896697998 0.625 0.4201819896697998 0.75 0.4201819896697998 0.75 0.4201819896697998 0.625 0.4201819896697998 0.75 0.375 0.75 0.375 0.75 0.4201819896697998 0.75 0.607509970664978 0.75 0.607509970664978 1.0 0.625 1.0 0.625 0.75 0.125 0.75 0.375 0.75 0.607509970664978 0.75 0.625 0.75 0.625 0.75 0.625 0.75 0.625 0.125 0.625 0.125 0.625 0.0 0.625 0.0 0.625 1.0 0.625 1.0 0.625 0.75 0.625 0.75 0.625 0.75 0.625 0.75 0.607509970664978 0.0 0.625 0.0 0.375 0.0 0.607509970664978 0.0 0.375 0.625 0.375 0.75 0.607509970664978 0.75 0.607509970664978 0.625 0.375 0.75 0.375 1.0 0.625 0.625 0.625 0.75 0.875 0.75 0.875 0.625 0.625 1.0 0.625 1.0 0.625 0.75 0.625 0.75 0.625 0.125 0.625 0.125 0.625 0.0 0.625 0.0 0.625 0.75 0.625 0.75 0.625 0.625 0.625 0.625 0.625 1.0 0.625 1.0 0.625 0.75 0.625 0.75 0.625 0.125 0.625 0.125 0.625 0.0 0.625 0.0 0.375 0.625 0.375 0.75 0.625 0.75 0.625 0.625 0.375 0.75 0.375 1.0 0.625 1.0 0.625 0.75 0.125 0.625 0.125 0.75 0.375 0.75 0.375 0.625 0.625 0.625 0.625 0.75 0.875 0.75 0.875 0.625 0.375 0.0 0.375 0.1250000149011612 0.625 0.125 0.625 0.0 0.4201819896697998 0.625 0.4201819896697998 0.75 0.625 0.75 0.625 0.625 0.4201819896697998 0.75 0.4201819896697998 1.0 0.625 1.0 0.625 0.75 0.125 0.75 0.375 0.75 0.625 0.75 0.875 0.75 0.4201819896697998 0.0 0.625 0.0 0.375 0.0 0.4201819896697998 0.0 0.375 0.75 0.375 1.0 0.4201819896697998 1.0 0.4201819896697998 0.75 0.375 0.75 0.375 0.75 0.375 0.75 0.4201819896697998 0.75 0.4201819896697998 0.625 0.4201819896697998 0.625 0.4201819896697998 0.75 0.4201819896697998 0.75 0.4201819896697998 0.75 0.375 0.75</float_array>
				<technique_common>
				<accessor source="#id-mesh-4-texcoord-0-array" count="236" stride="2">
					<param name="S" type="float"/>
					<param name="T" type="float"/>
				</accessor>
				</technique_common>
			</source>
			<vertices id="id-mesh-4-vertices">
				<input semantic="POSITION" source="#id-mesh-4-positions"/>
			</vertices>
			<polygons count="66" material="id-trimat-5">
				<input semantic="VERTEX" source="#id-mesh-4-vertices" offset="0"/>
				<input semantic="NORMAL" source="#id-mesh-4-normals" offset="0"/>
				<input semantic="TEXCOORD" source="#id-mesh-4-texcoord-0" offset="0" set="0"/>
				<p> 0 1 2 3 </p>
				<p> 4 5 6 7 </p>
				<p> 8 9 10 11 </p>
				<p> 12 13 14 15 </p>
				<p> 16 17 18 19 </p>
				<p> 20 21 22 23 </p>
				<p> 24 25 26 27 </p>
				<p> 28 29 30 31 </p>
				<p> 32 33 34 35 </p>
				<p> 36 37 38 39 </p>
				<p> 40 41 42 43 </p>
				<p> 44 45 46 47 </p>
				<p> 48 49 50 51 </p>
				<p> 52 53 54 55 </p>
				<p> 56 57 58 59 </p>
				<p> 60 61 62 63 </p>
				<p> 64 65 66 67 </p>
				<p> 68 69 70 71 </p>
				<p> 72 73 74 75 </p>
				<p> 76 77 78 79 </p>
				<p> 80 81 82 83 </p>
				<p> 84 85 86 87 </p>
				<p> 88 89 90 91 </p>
				<p> 92 93 94 95 </p>
				<p> 96 97 98 99 </p>
				<p> 100 101 102 103 </p>
				<p> 104 105 106 107 </p>
				<p> 108 109 110 111 </p>
				<p> 112 113 114 115 </p>
				<p> 116 117 118 119 </p>
				<p> 120 121 122 123 </p>
				<p> 124 125 126 127 </p>
				<p> 128 129 130 131 </p>
				<p> 132 133 134 135 </p>
				<p> 4 136 137 5 </p>
				<p> 8 138 139 9 </p>
				<p> 140 141 14 13 </p>
				<p> 142 143 144 145 </p>
				<p> 146 147 148 149 </p>
				<p> 150 151 26 25 </p>
				<p> 152 31 30 153 </p>
				<p> 154 35 34 155 </p>
				<p> 156 157 158 159 </p>
				<p> 160 161 133 132 </p>
				<p> 162 163 164 165 </p>
				<p> 166 167 168 169 </p>
				<p> 170 171 172 173 </p>
				<p> 174 175 176 177 </p>
				<p> 178 179 180 181 </p>
				<p> 182 183 184 185 </p>
				<p> 186 187 188 189 </p>
				<p> 190 191 192 193 </p>
				<p> 194 195 196 197 </p>
				<p> 198 199 200 201 </p>
				<p> 202 203 204 205 </p>
				<p> 206 207 208 209 </p>
				<p> 210 211 212 213 </p>
				<p> 96 214 215 97 </p>
				<p> 100 216 217 101 </p>
				<p> 218 107 106 219 </p>
				<p> 220 111 110 221 </p>
				<p> 222 223 224 225 </p>
				<p> 226 227 118 117 </p>
				<p> 120 228 229 121 </p>
				<p> 230 231 232 233 </p>
				<p> 225 234 235 222 </p>
			</polygons>
		</mesh>
	</geometry>
</library_geometries>
<library_visual_scenes>
	<visual_scene id="id-scene-1" name="scene">
		<node id="Cube" name="Cube" type="NODE">
			<matrix sid="transform"> 0.3625251352787018 0.0 0.0 0.0 0.0 0.3625251352787018 0.0 0.0 0.0 0.0 1.0358003377914429 0.0 0.0 0.0 0.0 1.0  </matrix>
			<instance_geometry url="#id-mesh-4">
				<bind_material>
					<technique_common>
						<instance_material symbol="id-trimat-5" target="#id-material-3"/>
					</technique_common>
				</bind_material>
			</instance_geometry>
		</node>
	</visual_scene>
</library_visual_scenes>
<scene>
	<instance_visual_scene url="#id-scene-1" />
</scene>
</COLLADA>
